<svg
  xmlns="http://www.w3.org/2000/svg"
  width="36"
  height="24"
  viewBox="0 0 36 24"
  fill="none"
  class="icon icon-social-visa"
>
  <rect x="0.75" y="0.75" width="34.3324" height="22.2959" rx="4.15374" fill="white"/>
  <rect x="0.75" y="0.75" width="34.3324" height="22.2959" rx="4.15374" stroke="#D6DCE5" stroke-width="0.5"/>
  <path d="M17.709 8.34589L16.1309 15.7225H14.2227L15.801 8.34589H17.709ZM25.7375 13.109L26.7421 10.3388L27.3202 13.109H25.7375ZM27.8665 15.7225H29.6316L28.0914 8.34589H26.4622C26.0961 8.34589 25.7872 8.55882 25.6497 8.88708L22.7868 15.7225H24.7907L25.1886 14.621H27.6368L27.8665 15.7225ZM22.8863 13.314C22.8945 11.3671 20.1939 11.2599 20.2125 10.3902C20.2181 10.1252 20.4705 9.8441 21.0218 9.77195C21.2956 9.73623 22.0486 9.70891 22.9036 10.1023L23.2384 8.53804C22.7791 8.37134 22.1882 8.21094 21.4532 8.21094C19.5672 8.21094 18.2397 9.21371 18.2285 10.6496C18.2166 11.7114 19.1761 12.304 19.8992 12.657C20.6426 13.0187 20.8924 13.2503 20.8891 13.5736C20.8842 14.0688 20.2961 14.2869 19.7474 14.2955C18.7879 14.3107 18.231 14.0366 17.7872 13.8298L17.4414 15.4461C17.8871 15.6509 18.7101 15.8288 19.5639 15.8379C21.5683 15.8379 22.8797 14.8475 22.8863 13.314ZM14.9822 8.34589L11.8906 15.7225H9.8731L8.35177 9.83546C8.25932 9.47287 8.179 9.34026 7.89813 9.18733C7.43982 8.93868 6.6822 8.70497 6.01562 8.56022L6.06115 8.34589H9.30809C9.72181 8.34589 10.0942 8.62139 10.1881 9.09791L10.9917 13.3668L12.9774 8.34589H14.9822Z" fill="#1434CB"/>
</svg>
